<?xml version="1.0" encoding="UTF-8"?>
<svg width="1000px" height="1000px" viewBox="0 0 1000 1000" version="1.1" xmlns="http://www.w3.org/2000/svg" xmlns:xlink="http://www.w3.org/1999/xlink">
    <title>General</title>
    <g id="General" stroke="none" stroke-width="1" fill="none" fill-rule="evenodd">
        <rect fill="#FFFFFF" x="0" y="0" width="1000" height="1000"></rect>
        <g id="􀿕" fill="#000000" fill-rule="nonzero">
            <path d="M175.682914,1000 C117.836101,1000 74.0939118,985.270487 44.4563471,955.811462 C14.8187824,926.352437 0,883.235137 0,826.459561 L0,174.076058 C0,116.586324 14.8187824,73.2012141 44.4563471,43.9207284 C74.0939118,14.6402428 117.836101,0 175.682914,0 L824.317086,0 C882.163899,0 925.906088,14.7295126 955.543653,44.1885378 C985.181218,73.6475629 1000,116.943403 1000,174.076058 L1000,826.459561 C1000,883.235137 985.181218,926.352437 955.543653,955.811462 C925.906088,985.270487 882.163899,1000 824.317086,1000 L175.682914,1000 Z M363.685056,821.638993 L638.993037,821.638993 C651.133726,821.638993 661.756829,819.317979 670.862346,814.675951 C679.967863,810.033923 686.663096,803.606499 690.948045,795.39368 L693.09052,790.573112 L612.212105,710.765935 L610.605249,724.156401 C608.819854,732.36922 603.285128,736.475629 594.001071,736.475629 C580.432066,736.475629 573.826102,729.869666 574.183182,716.65774 L575.254419,673.27263 L521.692555,620.246385 L521.692555,717.193358 C521.692555,730.048206 514.729513,736.475629 500.803428,736.475629 C486.877343,736.475629 479.914301,730.048206 479.914301,717.193358 L479.914301,577.932512 L420.460632,519.014462 L427.423674,716.65774 C427.423674,722.371005 425.638279,727.102303 422.067488,730.851634 C418.496697,734.600964 413.49759,736.475629 407.070166,736.475629 C401.71398,736.475629 396.982682,734.600964 392.876272,730.851634 C388.769863,727.102303 386.716658,722.549545 386.716658,717.193358 L378.14676,476.164971 L282.271023,380.824853 L298.875201,760.042849 C299.946438,780.039279 306.016783,795.30441 317.086235,805.838243 C328.155686,816.372076 343.688627,821.638993 363.685056,821.638993 Z M741.831816,777.182646 C747.188002,782.538832 753.704696,785.127656 761.381896,784.949116 C769.059097,784.770577 775.39725,782.003214 780.396358,776.647027 C786.466702,771.290841 789.501875,764.774147 789.501875,757.096947 C789.501875,749.419746 786.466702,742.724513 780.396358,737.011248 L268.880557,225.495447 C263.524371,219.782182 256.918407,216.925549 249.062667,216.925549 C241.206927,216.925549 234.600964,219.782182 229.244778,225.495447 C223.531512,230.851634 220.764149,237.368327 220.942689,245.045528 C221.121228,252.722728 223.888591,259.417961 229.244778,265.131227 L741.831816,777.182646 Z M710.765935,603.642207 L722.549545,335.297268 L762.720943,335.297268 C770.219604,335.297268 776.557758,332.708445 781.735404,327.530798 C786.913051,322.353151 789.680414,316.193537 790.037493,309.051955 C790.394572,301.553294 787.805749,295.21514 782.271023,290.037493 C776.736297,284.859846 770.219604,282.271023 762.720943,282.271023 L636.314944,282.271023 L636.314944,242.099625 C636.314944,218.532405 628.994822,199.785753 614.35458,185.859668 C599.714337,171.933583 579.539368,164.970541 553.829673,164.970541 L447.777183,164.970541 C424.209963,164.970541 405.195501,171.219425 390.733798,183.717193 C376.272094,196.214962 368.327084,213.176219 366.898768,234.600964 C366.898768,237.457597 366.809498,240.13569 366.630959,242.635244 C366.452419,245.134797 366.363149,247.812891 366.363149,250.669523 L357.257633,250.669523 L492.769148,386.716658 L492.769148,378.14676 C494.911623,376.361364 497.589716,375.468666 500.803428,375.468666 C514.729513,375.468666 521.692555,382.07463 521.692555,395.286556 L521.692555,415.104446 L581.146224,474.022496 L583.824317,401.178361 C583.824317,387.609355 590.787359,380.824853 604.713444,380.824853 C618.639529,380.824853 625.602571,387.609355 625.602571,401.178361 L621.317622,513.658275 L710.765935,603.642207 Z M424.745581,282.271023 L425.2812,244.2421 C425.2812,237.100518 427.602214,231.476522 432.244242,227.370112 C436.88627,223.263703 442.956615,221.210498 450.455276,221.210498 L550.615961,221.210498 C558.114622,221.210498 564.184967,223.263703 568.826995,227.370112 C573.469023,231.476522 575.790037,237.100518 575.790037,244.2421 L576.325656,282.271023 L424.745581,282.271023 Z" id="Shape"></path>
        </g>
    </g>
</svg>